<svg version="1.2" xmlns="http://www.w3.org/2000/svg" viewBox="0 0 64 34" width="64" height="34">
	<title>Google_Pay_Mark-svg</title>
	<style>
		.s0 { fill: #ffffff } 
		.s1 { fill: #3c4043 } 
		.s2 { fill: #4285f4 } 
		.s3 { fill: #34a853 } 
		.s4 { fill: #fabb05 } 
		.s5 { fill: #e94235 } 
	</style>
	<path id="Base_1_" class="s0" d="m46.9 0.1h-29.9c-9.3 0-16.9 7.6-16.9 16.9 0 9.3 7.6 16.9 16.9 16.9h29.9c9.4 0 17-7.6 17-16.9 0-9.3-7.6-16.9-17-16.9z"/>
	<path id="Outline" fill-rule="evenodd" class="s1" d="m63.9 16.9c0 9.3-7.6 16.9-17 16.9h-29.9c-9.3 0-16.9-7.6-16.9-16.9 0-9.3 7.6-16.9 16.9-16.9h29.9c9.4 0 17 7.6 17 16.9zm-46.9-15.5q-3.1 0-6 1.2-2.8 1.2-5 3.3-2.1 2.2-3.3 5-1.3 2.9-1.3 6 0 3.2 1.3 6 1.2 2.8 3.3 5 2.2 2.1 5 3.3 2.9 1.3 6 1.3h29.9q3.2 0 6.1-1.3 2.8-1.2 4.9-3.3 2.2-2.2 3.4-5 1.2-2.8 1.2-6 0-3.1-1.2-6-1.2-2.8-3.4-5-2.1-2.1-4.9-3.3-2.9-1.2-6.1-1.2z"/>
	<g id="G_Pay_Lockup_1_">
		<g id="Pay_Typeface_3_">
			<path id="Letter_p_3_" fill-rule="evenodd" class="s1" d="m30.5 23.2h-1.6v-12.6h4.3q1.6 0 2.8 1.1 1.2 1.1 1.2 2.7 0 1.6-1.2 2.6-1.2 1.1-2.8 1.1h-2.7zm0-6.7h2.7q1 0 1.6-0.6 0.7-0.7 0.7-1.6 0-0.8-0.7-1.5-0.6-0.7-1.6-0.7h-2.7z"/>
			<path id="Letter_a_3_" fill-rule="evenodd" class="s1" d="m41.4 14.3q1.8 0 2.9 1 1 0.9 1 2.6v5.3h-1.5v-1.2h-0.1q-1 1.5-2.7 1.5-1.4 0-2.4-0.8-1-0.9-1-2.1 0-1.4 1-2.2 1.1-0.8 2.8-0.8 1.4 0 2.3 0.6v-0.4q0-0.9-0.6-1.5-0.7-0.5-1.6-0.5-1.4 0-2.2 1.1l-1.4-0.9q1.2-1.7 3.5-1.7zm-2.1 6.3q0 0.6 0.6 1 0.5 0.5 1.2 0.5 1 0 1.8-0.8 0.9-0.8 0.9-1.8-0.8-0.6-2.2-0.6-1 0-1.6 0.5-0.7 0.5-0.7 1.2z"/>
			<path id="Letter_y_3_" class="s1" d="m54.2 14.6l-5.5 12.4h-1.6l2-4.3-3.6-8.1h1.8l2.6 6.2 2.5-6.2z"/>
		</g>
		<g id="G_Mark_1_">
			<path id="Blue_500" class="s2" d="m24 17.1q0-0.8-0.1-1.5h-6.9v2.8h4c-0.2 0.9-0.7 1.7-1.5 2.2v1.8h2.4c1.3-1.2 2.1-3.1 2.1-5.3z"/>
			<path id="Green_500_1_" class="s3" d="m19.5 20.6c-0.6 0.4-1.5 0.7-2.4 0.7-1.9 0-3.6-1.3-4.1-3h-2.4v1.9c1.1 2.3 3.6 4 6.5 4 1.9 0 3.6-0.7 4.8-1.8z"/>
			<path id="Yellow_500_1_" class="s4" d="m12.7 16.9q0-0.7 0.3-1.4v-1.8h-2.4c-0.5 0.9-0.8 2-0.8 3.2 0 1.2 0.3 2.3 0.8 3.3l2.4-1.9q-0.3-0.6-0.3-1.4z"/>
			<path id="Red_500" class="s5" d="m17.1 12.5c1 0 2 0.4 2.7 1.1l2.1-2c-1.2-1.2-2.9-1.9-4.8-1.9-2.9 0-5.4 1.6-6.5 4l2.4 1.8c0.5-1.7 2.2-3 4.1-3z"/>
		</g>
	</g>
</svg>